<svg xmlns="http://www.w3.org/2000/svg" width="114" height="68" viewBox="0 0 114 68" fill="none"><defs><filter id="glow_work" x="-30%" y="-30%" width="160%" height="160%"><feGaussianBlur stdDeviation="1.8" result="b"/><feMerge><feMergeNode in="b"/><feMergeNode in="SourceGraphic"/></feMerge></filter></defs><rect width="114" height="68" rx="10" fill="#0d1117" stroke="#22C55E" stroke-opacity="0.45" stroke-width="1.2"/><rect width="114" height="68" rx="10" fill="none" stroke="#22C55E" stroke-width="1.5" opacity="0"><animate attributeName="opacity" values="0;0.65;0" dur="2.2s" repeatCount="indefinite"/></rect><g transform="translate(10,14)" filter="url(#glow_work)" color="#22C55E"><svg viewBox="0 0 24 24" fill="currentColor"><path d="M20 6h-4V4c0-1.11-.89-2-2-2h-4c-1.11 0-2 .89-2 2v2H4c-1.11 0-2 .89-2 2v11c0 1.11.89 2 2 2h16c1.11 0 2-.89 2-2V8c0-1.11-.89-2-2-2zm-6 0h-4V4h4v2z"/></svg></g><text x="48" y="34" fill="#22C55E" font-size="12" font-weight="700" letter-spacing="1.5" font-family="Fira Code,monospace">OPEN TO WORK</text><text x="48" y="50" fill="#8B95A7" font-size="8" font-family="monospace">LinkedIn Profile</text><text x="94" y="40" fill="#22C55E" font-size="18" opacity="0.7">›</text><animate attributeName="opacity" values="0.3;1;0.3" dur="1.6s" repeatCount="indefinite"/></svg>