<svg xmlns="http://www.w3.org/2000/svg" width="460" height="210" viewBox="0 0 460 210" fill="none" font-family="Segoe UI,Helvetica,Arial,sans-serif"><defs><linearGradient id="bg_mnemo" x1="0" y1="0" x2="1" y2="1"><stop offset="0" stop-color="#1a0a2e"/><stop offset="1" stop-color="#06080d"/></linearGradient><linearGradient id="ac_mnemo" x1="0" y1="0" x2="1" y2="0"><stop offset="0" stop-color="#a855f7"/><stop offset="1" stop-color="#a855f7" stop-opacity="0"/></linearGradient><radialGradient id="gl_mnemo" cx="0.12" cy="0.1" r="0.9"><stop offset="0" stop-color="#a855f7" stop-opacity="0.33"/><stop offset="0.6" stop-color="#a855f7" stop-opacity="0"/></radialGradient><clipPath id="cl_mnemo"><rect width="460" height="210" rx="18"/></clipPath></defs><g clip-path="url(#cl_mnemo)"><rect width="460" height="210" rx="18" fill="url(#bg_mnemo)"/><rect width="460" height="210" fill="url(#gl_mnemo)"/><line x1="0" y1="0" x2="0" y2="210" stroke="#a855f7" stroke-opacity="0.05"/><line x1="46" y1="0" x2="46" y2="210" stroke="#a855f7" stroke-opacity="0.05"/><line x1="92" y1="0" x2="92" y2="210" stroke="#a855f7" stroke-opacity="0.05"/><line x1="138" y1="0" x2="138" y2="210" stroke="#a855f7" stroke-opacity="0.05"/><line x1="184" y1="0" x2="184" y2="210" stroke="#a855f7" stroke-opacity="0.05"/><line x1="230" y1="0" x2="230" y2="210" stroke="#a855f7" stroke-opacity="0.05"/><line x1="276" y1="0" x2="276" y2="210" stroke="#a855f7" stroke-opacity="0.05"/><line x1="322" y1="0" x2="322" y2="210" stroke="#a855f7" stroke-opacity="0.05"/><line x1="368" y1="0" x2="368" y2="210" stroke="#a855f7" stroke-opacity="0.05"/><line x1="414" y1="0" x2="414" y2="210" stroke="#a855f7" stroke-opacity="0.05"/><line x1="0" y1="0" x2="460" y2="0" stroke="#a855f7" stroke-opacity="0.05"/><line x1="0" y1="46" x2="460" y2="46" stroke="#a855f7" stroke-opacity="0.05"/><line x1="0" y1="92" x2="460" y2="92" stroke="#a855f7" stroke-opacity="0.05"/><line x1="0" y1="138" x2="460" y2="138" stroke="#a855f7" stroke-opacity="0.05"/><line x1="0" y1="184" x2="460" y2="184" stroke="#a855f7" stroke-opacity="0.05"/><rect x="0" y="0" width="460" height="4" fill="url(#ac_mnemo)"/><rect x="0" y="0" width="120" height="4" fill="#a855f7"><animate attributeName="x" values="-120;460" dur="4.5s" repeatCount="indefinite"/></rect><path d="M14 30 L14 14 L30 14" stroke="#a855f7" stroke-opacity="0.5" stroke-width="2" fill="none"/><path d="M446 30 L446 14 L430 14" stroke="#a855f7" stroke-opacity="0.5" stroke-width="2" fill="none"/><path d="M14 180 L14 196 L30 196" stroke="#a855f7" stroke-opacity="0.5" stroke-width="2" fill="none"/><path d="M446 180 L446 196 L430 196" stroke="#a855f7" stroke-opacity="0.5" stroke-width="2" fill="none"/><text x="30" y="52" fill="#a855f7" font-size="12" font-weight="700" letter-spacing="3">3D PERSONAL MEMORY OS</text><text x="29" y="88" fill="#ffffff" font-size="30" font-weight="800" letter-spacing="0.5">Mnemo Memory OS</text><text x="30" y="118" fill="#aeb6c2" font-size="13">Immersive 3D memory archive with semantic</text><text x="30" y="137" fill="#aeb6c2" font-size="13">constellations &amp; WebGPU.</text><rect x="30" y="164" width="30" height="30" rx="8" fill="#0d1117" stroke="#a855f7" stroke-opacity="0.4"/><g transform="translate(36,170) scale(0.75)"><path fill-rule="evenodd" clip-rule="evenodd" d="M1.5 0h21l-1.91 21.563L11.977 24l-8.564-2.438L1.5 0zm7.031 9.75l-.232-2.718 10.059.003.23-2.622L5.412 4.41l.698 8.01h9.126l-.326 3.426-2.91.804-2.955-.81-.188-2.11H6.248l.33 4.171L12 19.351l5.379-1.443.744-8.157H8.531z" fill="#E34F26"/></g><rect x="72" y="164" width="30" height="30" rx="8" fill="#0d1117" stroke="#a855f7" stroke-opacity="0.4"/><g transform="translate(78,170) scale(0.75)"><path fill-rule="evenodd" clip-rule="evenodd" d="M0 0h24v24H0V0zm22.034 18.276c-.175-1.095-.888-2.015-3.003-2.873-.736-.345-1.554-.585-1.797-1.14-.091-.33-.105-.51-.046-.705.15-.646.915-.84 1.515-.66.39.12.75.42.976.9 1.034-.676 1.034-.676 1.755-1.125-.27-.42-.404-.601-.586-.78-.63-.705-1.469-1.065-2.834-1.034l-.705.089c-.676.165-1.32.525-1.71 1.005-1.14 1.291-.811 3.541.569 4.471 1.365 1.02 3.361 1.244 3.616 2.205.24 1.17-.87 1.545-1.966 1.41-.811-.18-1.26-.586-1.755-1.336l-1.83 1.051c.21.48.45.689.81 1.109 1.74 1.756 6.09 1.666 6.871-1.004.029-.09.24-.705.074-1.65l.046.067zm-8.983-7.245h-2.248c0 1.938-.009 3.864-.009 5.805 0 1.232.063 2.363-.138 2.711-.33.689-1.18.601-1.566.48-.396-.196-.597-.466-.83-.855-.063-.105-.11-.196-.127-.196l-1.825 1.125c.305.63.75 1.172 1.324 1.517.855.51 2.004.675 3.207.405.783-.226 1.458-.691 1.811-1.411.51-.93.402-2.07.397-3.346.012-2.054 0-4.109 0-6.179l.004-.056z" fill="#F7DF1E"/></g><rect x="114" y="164" width="30" height="30" rx="8" fill="#0d1117" stroke="#a855f7" stroke-opacity="0.4"/><g transform="translate(120,170) scale(0.75)"><path fill-rule="evenodd" clip-rule="evenodd" d="M.38 0a.268.268 0 0 0-.256.332l2.894 11.716a.268.268 0 0 0 .01.04l2.89 11.708a.268.268 0 0 0 .447.128L23.802 7.15a.268.268 0 0 0-.112-.45l-5.784-1.667a.268.268 0 0 0-.123-.035L6.38 1.715a.268.268 0 0 0-.144-.04L.456.01A.268.268 0 0 0 .38 0zm.374.654L5.71 2.08 1.99 5.664zM6.61 2.34l4.864 1.4-3.65 3.515zm-.522.12l1.217 4.926-4.877-1.4zm6.28 1.538l4.878 1.404-3.662 3.53zm-.52.13l1.208 4.9-4.853-1.392zm6.3 1.534l4.947 1.424-3.715 3.574zm-.524.12l1.215 4.926-4.876-1.398zm-15.432.696l4.964 1.424-3.726 3.586zM8.047 8.15l4.877 1.4-3.66 3.527zm-.518.137l1.236 5.017-4.963-1.432zm6.274 1.535l4.965 1.425-3.73 3.586zm-.52.127l1.235 5.012-4.958-1.43zm-9.63 2.438l4.873 1.406-3.656 3.523zm5.854 1.687l4.863 1.403-3.648 3.51zm-.54.04l1.214 4.927-4.875-1.4zm-3.896 4.02l5.037 1.442-3.782 3.638z" fill="#FFFFFF"/></g><rect x="156" y="164" width="30" height="30" rx="8" fill="#0d1117" stroke="#a855f7" stroke-opacity="0.4"/><g transform="translate(162,170) scale(0.75)"><path fill-rule="evenodd" clip-rule="evenodd" d="M1.292 5.856L11.54 0v24l-4.095-2.378V7.603l-6.168 3.564.015-5.31zm21.43 5.311l-.014-5.31L12.46 0v24l4.095-2.378V14.87l3.092 1.788-.018-4.618-3.074-1.756V7.603l6.168 3.564z" fill="#FF6F00"/></g><rect x="198" y="164" width="30" height="30" rx="8" fill="#0d1117" stroke="#a855f7" stroke-opacity="0.4"/><g transform="translate(204,170) scale(0.75)"><path fill-rule="evenodd" clip-rule="evenodd" d="m0 4.784 8.652 14.432 8.652-14.432zm22.032.145L20.07 8.202H24L22.032 4.93zm-4.46 0-4.192 6.993h8.384zm2.498 3.575 1.962 3.273L24 8.504zm-6.69 3.72 4.192 6.992 4.192-6.992z" fill="#005CDD"/></g></g><rect x="0.5" y="0.5" width="459" height="209" rx="18" fill="none" stroke="#a855f7" stroke-opacity="0.45"/></svg>