<svg xmlns="http://www.w3.org/2000/svg" width="120" height="72" viewBox="0 0 120 72" fill="none"><defs><filter id="glinkedin" x="-50%" y="-50%" width="200%" height="200%"><feGaussianBlur stdDeviation="2" result="b"/><feMerge><feMergeNode in="b"/><feMergeNode in="SourceGraphic"/></feMerge></filter><linearGradient id="bglinkedin" x1="0" y1="0" x2="0" y2="1"><stop offset="0" stop-color="#1a2332"/><stop offset="1" stop-color="#0d1117"/></linearGradient></defs><rect width="120" height="72" rx="12" fill="url(#bglinkedin)" stroke="#22C55E" stroke-opacity="0.5" stroke-width="1.2"/><rect width="120" height="72" rx="12" fill="none" stroke="#22C55E" stroke-width="1.5" opacity="0"><animate attributeName="opacity" values="0;0.6;0" dur="2.5s" repeatCount="indefinite"/></rect><g transform="translate(48,10)" filter="url(#glinkedin)" color="currentColor"><path d="M20.447 20.452h-3.554v-5.569c0-1.328-.027-3.037-1.852-3.037-1.853 0-2.136 1.445-1.853 3.037v5.667H9.351V9h3.414v1.561h.046c.477-.9 1.637-3.02 3.025-3.02 2.24 0 3.58 1.454 3.58 3.538v5.659H19.5l.015 3.982zM4.5 3.5c-.83 0-1.5.67-1.5 1.5S2.67 5 4.5 5s1.5-.67 1.5-1.5S5.33 2 4.5 2zm0 18c-.83 0-1.5-.67-1.5-1.5S2.67 17 4.5 17s1.5.67 1.5 1.5-.67 1.5-1.5 1.5zm17.5-1.5c0 1.657-1.343 3-3 3H6c-1.657 0-3-1.343-3-3V5c0-1.657 1.343-3 3-3h12c1.657 0 3 1.343 3 3v14c0 1.657-1.343 3-3 3z"/></g><text x="60" y="48" fill="#22C55E" font-size="10" font-weight="600" letter-spacing="1.5" font-family="JetBrains Mono,Consolas,monospace" text-anchor="middle">OPEN TO WORK</text><text x="60" y="58" fill="#8B95A7" font-size="7.5" font-family="monospace" text-anchor="middle">LinkedIn Profile</text></svg>