<svg xmlns="http://www.w3.org/2000/svg" width="228.4" height="44" viewBox="0 0 228.4 44" fill="none" role="img" aria-label="ONYX: Edge AI Inference">
<title>ONYX — Edge AI Inference</title>
<defs>
<linearGradient id="bg" x1="0" y1="0" x2="0" y2="1"><stop offset="0" stop-color="#1b2434"/><stop offset="1" stop-color="#0b0f17"/></linearGradient>
<filter id="glow" x="-40%" y="-60%" width="180%" height="220%"><feGaussianBlur stdDeviation="1.6" result="b"/><feMerge><feMergeNode in="b"/><feMergeNode in="SourceGraphic"/></feMerge></filter>
</defs>
<rect x="0.6" y="0.6" width="227.2" height="42.8" rx="21.4" fill="url(#bg)" stroke="#FFB020" stroke-opacity="0.38" stroke-width="1.2"/>
<g transform="translate(16,12.0)" fill="#FFB020" color="#FFB020" filter="url(#glow)">
<g transform="scale(0.83333)"><path d="M9 2v3H7a2 2 0 0 0-2 2v2H2v2h3v2H2v2h3v2a2 2 0 0 0 2 2h2v3h2v-3h2v3h2v-3h2a2 2 0 0 0 2-2v-2h3v-2h-3v-2h3V9h-3V7a2 2 0 0 0-2-2h-2V2h-2v3h-2V2zm0 5h6a1 1 0 0 1 1 1v8a1 1 0 0 1-1 1H9a1 1 0 0 1-1-1V8a1 1 0 0 1 1-1zm2 3v4h2v-4z" fill="currentColor"/></g>
</g>
<text x="47" y="26.68" fill="#e6f7ff" font-family="JetBrains Mono, Fira Code, Consolas, monospace" font-size="13" font-weight="700">ONYX</text>
<circle cx="89.2" cy="22.0" r="2.0" fill="#FFB020" fill-opacity="0.5"/>
<text x="100.2" y="25.96" fill="#8b95a7" font-family="JetBrains Mono, Fira Code, Consolas, monospace" font-size="11">Edge AI Inference</text>
</svg>
